<svg width="28" height="33" viewBox="0 0 28 33" fill="none" xmlns="http://www.w3.org/2000/svg">
<path d="M13.7163 25.2393H25.9325" stroke="#319D8F" stroke-width="3" stroke-linecap="round" stroke-linejoin="round"/>
<path d="M19.8243 2.84335C20.3643 2.30336 21.0967 2 21.8604 2C22.2385 2 22.6129 2.07448 22.9623 2.21918C23.3116 2.36388 23.629 2.57598 23.8964 2.84335C24.1638 3.11073 24.3759 3.42815 24.5206 3.7775C24.6653 4.12684 24.7398 4.50126 24.7398 4.87939C24.7398 5.25752 24.6653 5.63194 24.5206 5.98129C24.3759 6.33063 24.1638 6.64805 23.8964 6.91543L6.92943 23.8824L1.5 25.2398L2.85736 19.8103L19.8243 2.84335Z" stroke="#319D8F" stroke-width="3" stroke-linecap="round" stroke-linejoin="round"/>
<path d="M19.8242 19.1313L19.8242 31.3476" stroke="#319D8F" stroke-width="3" stroke-linecap="round" stroke-linejoin="round"/>
</svg>
