<svg width="29" height="21" viewBox="0 0 29 21" fill="none" xmlns="http://www.w3.org/2000/svg">
<path fill-rule="evenodd" clip-rule="evenodd" d="M1.5 0.742188C0.671573 0.742188 0 1.41376 0 2.24219C0 3.07061 0.671573 3.74219 1.5 3.74219H27.3281C28.1566 3.74219 28.8281 3.07061 28.8281 2.24219C28.8281 1.41376 28.1566 0.742188 27.3281 0.742188H1.5ZM1.5 6.08594C0.671573 6.08594 0 6.75751 0 7.58594C0 8.41436 0.671573 9.08594 1.5 9.08594H21.9844C22.8128 9.08594 23.4844 8.41436 23.4844 7.58594C23.4844 6.75751 22.8128 6.08594 21.9844 6.08594H1.5ZM0 13.8203C0 12.9919 0.671573 12.3203 1.5 12.3203H27.3281C28.1566 12.3203 28.8281 12.9919 28.8281 13.8203C28.8281 14.6487 28.1566 15.3203 27.3281 15.3203H1.5C0.671573 15.3203 0 14.6487 0 13.8203ZM1.5 17.6641C0.671573 17.6641 0 18.3356 0 19.1641C0 19.9925 0.671573 20.6641 1.5 20.6641H21.9844C22.8128 20.6641 23.4844 19.9925 23.4844 19.1641C23.4844 18.3356 22.8128 17.6641 21.9844 17.6641H1.5Z" fill="#319D8F"/>
</svg>
