<svg width="30" height="28" viewBox="0 0 30 28" fill="none" xmlns="http://www.w3.org/2000/svg">
<path fill-rule="evenodd" clip-rule="evenodd" d="M11.8409 0.727051C10.7416 0.727051 9.67765 1.14902 8.88561 1.91518C8.09188 2.68297 7.63636 3.73515 7.63636 4.84321V5.81796H4.10909C1.82504 5.81796 0 7.68462 0 9.95432V23.1361C0 25.4058 1.82504 27.2725 4.10909 27.2725L9.13636 27.2725H19.9545L24.9818 27.2725C27.2659 27.2725 29.0909 25.4058 29.0909 23.1361V9.95432C29.0909 7.68462 27.2659 5.81796 24.9818 5.81796H21.4545V4.84321C21.4545 3.73515 20.999 2.68297 20.2053 1.91518C19.4133 1.14902 18.3493 0.727051 17.25 0.727051H11.8409ZM18.4545 5.81796V4.84321C18.4545 4.56357 18.3402 4.28489 18.1195 4.07144C17.8971 3.85634 17.5853 3.72705 17.25 3.72705H11.8409C11.5057 3.72705 11.1938 3.85634 10.9714 4.07144C10.7507 4.28489 10.6364 4.56357 10.6364 4.84321V5.81796H18.4545ZM10.6364 8.81796H18.4545V24.2725H10.6364V8.81796ZM7.63636 8.81796H4.10909C3.51122 8.81796 3 9.31198 3 9.95432V23.1361C3 23.7785 3.51122 24.2725 4.10909 24.2725H7.63636V8.81796ZM21.4545 24.2725V8.81796H24.9818C25.5797 8.81796 26.0909 9.31198 26.0909 9.95432V23.1361C26.0909 23.7785 25.5797 24.2725 24.9818 24.2725H21.4545Z" fill="#319D8F"/>
</svg>
