<svg width="22" height="26" viewBox="0 0 22 26" fill="none" xmlns="http://www.w3.org/2000/svg">
<path d="M13.0002 2H9.00024C8.73503 2 8.48067 1.89464 8.29314 1.70711C8.1056 1.51957 8.00024 1.26522 8.00024 1C8.00024 0.734784 8.1056 0.48043 8.29314 0.292893C8.48067 0.105357 8.73503 0 9.00024 0H13.0002C13.2655 0 13.5198 0.105357 13.7074 0.292893C13.8949 0.48043 14.0002 0.734784 14.0002 1C14.0002 1.26522 13.8949 1.51957 13.7074 1.70711C13.5198 1.89464 13.2655 2 13.0002 2Z" fill="#319D8F"/>
<path d="M21.0002 3H1.00024C0.735028 3 0.480674 3.10536 0.293138 3.29289C0.105601 3.48043 0.000244141 3.73478 0.000244141 4C0.000244141 4.26522 0.105601 4.51957 0.293138 4.70711C0.480674 4.89464 0.735028 5 1.00024 5H2.00024V23C2.00112 23.7954 2.31747 24.5579 2.87989 25.1204C3.44231 25.6828 4.20486 25.9991 5.00024 26H17.0002C17.7956 25.9991 18.5582 25.6828 19.1206 25.1204C19.683 24.5579 19.9994 23.7954 20.0002 23V5H21.0002C21.2655 5 21.5198 4.89464 21.7074 4.70711C21.8949 4.51957 22.0002 4.26522 22.0002 4C22.0002 3.73478 21.8949 3.48043 21.7074 3.29289C21.5198 3.10536 21.2655 3 21.0002 3ZM18.0002 23C18 23.2651 17.8946 23.5194 17.7071 23.7068C17.5196 23.8943 17.2654 23.9998 17.0002 24H5.00024C4.7351 23.9998 4.48089 23.8943 4.2934 23.7068C4.10592 23.5194 4.00048 23.2651 4.00024 23V5H18.0002V23Z" fill="#319D8F"/>
<path d="M8.00024 21C7.73503 21 7.48067 20.8946 7.29314 20.7071C7.1056 20.5196 7.00024 20.2652 7.00024 20V9C7.00024 8.73478 7.1056 8.48043 7.29314 8.29289C7.48067 8.10536 7.73503 8 8.00024 8C8.26546 8 8.51981 8.10536 8.70735 8.29289C8.89489 8.48043 9.00024 8.73478 9.00024 9V20C9.00024 20.2652 8.89489 20.5196 8.70735 20.7071C8.51981 20.8946 8.26546 21 8.00024 21ZM14.0002 21C13.735 21 13.4807 20.8946 13.2931 20.7071C13.1056 20.5196 13.0002 20.2652 13.0002 20V9C13.0002 8.73478 13.1056 8.48043 13.2931 8.29289C13.4807 8.10536 13.735 8 14.0002 8C14.2655 8 14.5198 8.10536 14.7074 8.29289C14.8949 8.48043 15.0002 8.73478 15.0002 9V20C15.0002 20.2652 14.8949 20.5196 14.7074 20.7071C14.5198 20.8946 14.2655 21 14.0002 21Z" fill="#319D8F"/>
</svg>
