<svg width="29" height="28" viewBox="0 0 29 28" fill="none" xmlns="http://www.w3.org/2000/svg">
<path fill-rule="evenodd" clip-rule="evenodd" d="M21.8853 4.40401C22.144 4.14533 22.4948 4 22.8606 4C23.0418 4 23.2212 4.03568 23.3885 4.105C23.5559 4.17432 23.7079 4.27593 23.836 4.40401C23.9641 4.5321 24.0657 4.68417 24.135 4.85152C24.2044 5.01888 24.24 5.19825 24.24 5.37939C24.24 5.56053 24.2044 5.73991 24.135 5.90726C24.0657 6.07462 23.9641 6.22668 23.836 6.35477L7.16283 23.028L4.56183 23.6782L5.21208 21.0772L21.8853 4.40401ZM22.8606 1C21.6992 1 20.5852 1.4614 19.764 2.28269L2.79697 19.2497C2.60474 19.4419 2.46836 19.6828 2.40242 19.9465L1.04506 25.376C0.917272 25.8871 1.06705 26.4279 1.43962 26.8004C1.81219 27.173 2.35292 27.3228 2.86408 27.195L8.29351 25.8376C8.55726 25.7717 8.79813 25.6353 8.99037 25.4431L25.9573 8.47609C26.364 8.06943 26.6866 7.58664 26.9067 7.05531C27.1268 6.52398 27.24 5.9545 27.24 5.37939C27.24 4.80428 27.1268 4.2348 26.9067 3.70347C26.6866 3.17214 26.364 2.68936 25.9573 2.28269C25.5507 1.87603 25.0679 1.55345 24.5366 1.33336C24.0052 1.11328 23.4358 1 22.8606 1ZM14.7165 24.2393C13.8881 24.2393 13.2165 24.9109 13.2165 25.7393C13.2165 26.5678 13.8881 27.2393 14.7165 27.2393H26.9327C27.7612 27.2393 28.4327 26.5678 28.4327 25.7393C28.4327 24.9109 27.7612 24.2393 26.9327 24.2393H14.7165Z" fill="#319D8F"/>
<path d="M21.8853 4.40401L21.5317 4.05046V4.05046L21.8853 4.40401ZM23.3885 4.105L23.5799 3.64306V3.64306L23.3885 4.105ZM23.836 4.40401L24.1896 4.05046V4.05046L23.836 4.40401ZM24.135 4.85152L24.597 4.66018L24.597 4.66018L24.135 4.85152ZM24.135 5.90726L24.597 6.0986L24.597 6.0986L24.135 5.90726ZM23.836 6.35477L24.1896 6.70832V6.70832L23.836 6.35477ZM7.16283 23.028L7.2841 23.513C7.37202 23.4911 7.45231 23.4456 7.51639 23.3815L7.16283 23.028ZM4.56183 23.6782L4.07676 23.5569C4.03416 23.7273 4.08409 23.9076 4.20828 24.0318C4.33247 24.156 4.51271 24.2059 4.6831 24.1633L4.56183 23.6782ZM5.21208 21.0772L4.85853 20.7236C4.79445 20.7877 4.74899 20.868 4.72701 20.9559L5.21208 21.0772ZM19.764 2.28269L20.1175 2.63625V2.63625L19.764 2.28269ZM2.79697 19.2497L2.44342 18.8961L2.44342 18.8961L2.79697 19.2497ZM2.40242 19.9465L1.91735 19.8253L2.40242 19.9465ZM1.04506 25.376L0.559991 25.2547H0.559991L1.04506 25.376ZM1.43962 26.8004L1.79317 26.4469L1.79317 26.4469L1.43962 26.8004ZM2.86408 27.195L2.98535 27.68H2.98535L2.86408 27.195ZM8.29351 25.8376L8.17224 25.3525L8.29351 25.8376ZM8.99037 25.4431L9.34392 25.7966H9.34392L8.99037 25.4431ZM25.9573 8.47609L25.6038 8.12253V8.12254L25.9573 8.47609ZM26.9067 7.05531L27.3686 7.24665L27.3686 7.24665L26.9067 7.05531ZM26.9067 3.70347L27.3686 3.51213L27.3686 3.51213L26.9067 3.70347ZM25.9573 2.28269L25.6038 2.63625V2.63625L25.9573 2.28269ZM24.5366 1.33336L24.7279 0.871422V0.871421L24.5366 1.33336ZM22.8606 3.5C22.3622 3.5 21.8842 3.69801 21.5317 4.05046L22.2388 4.75757C22.4037 4.59265 22.6274 4.5 22.8606 4.5V3.5ZM23.5799 3.64306C23.3518 3.54861 23.1075 3.5 22.8606 3.5V4.5C22.9761 4.5 23.0905 4.52275 23.1972 4.56694L23.5799 3.64306ZM24.1896 4.05046C24.0151 3.87594 23.8079 3.73751 23.5799 3.64306L23.1972 4.56694C23.3039 4.61113 23.4008 4.67591 23.4825 4.75757L24.1896 4.05046ZM24.597 4.66018C24.5025 4.43216 24.3641 4.22498 24.1896 4.05046L23.4825 4.75757C23.5641 4.83923 23.6289 4.93617 23.6731 5.04286L24.597 4.66018ZM24.74 5.37939C24.74 5.13259 24.6914 4.8882 24.597 4.66018L23.6731 5.04286C23.7173 5.14956 23.74 5.26391 23.74 5.37939H24.74ZM24.597 6.0986C24.6914 5.87058 24.74 5.6262 24.74 5.37939H23.74C23.74 5.49487 23.7173 5.60923 23.6731 5.71592L24.597 6.0986ZM24.1896 6.70832C24.3641 6.5338 24.5025 6.32662 24.597 6.0986L23.6731 5.71592C23.6289 5.82261 23.5641 5.91955 23.4825 6.00122L24.1896 6.70832ZM7.51639 23.3815L24.1896 6.70832L23.4825 6.00121L6.80928 22.6744L7.51639 23.3815ZM4.6831 24.1633L7.2841 23.513L7.04157 22.5429L4.44056 23.1931L4.6831 24.1633ZM4.72701 20.9559L4.07676 23.5569L5.0469 23.7995L5.69715 21.1985L4.72701 20.9559ZM21.5317 4.05046L4.85853 20.7236L5.56563 21.4308L22.2388 4.75757L21.5317 4.05046ZM20.1175 2.63625C20.845 1.90872 21.8318 1.5 22.8606 1.5V0.5C21.5666 0.5 20.3255 1.01408 19.4104 1.92914L20.1175 2.63625ZM3.15053 19.6032L20.1175 2.63625L19.4104 1.92914L2.44342 18.8961L3.15053 19.6032ZM2.88749 20.0678C2.93145 19.892 3.02237 19.7314 3.15053 19.6032L2.44342 18.8961C2.1871 19.1524 2.00527 19.4736 1.91735 19.8253L2.88749 20.0678ZM1.53013 25.4972L2.88749 20.0678L1.91735 19.8253L0.559991 25.2547L1.53013 25.4972ZM1.79317 26.4469C1.54479 26.1985 1.44494 25.838 1.53013 25.4972L0.559991 25.2547C0.389604 25.9362 0.589302 26.6572 1.08606 27.154L1.79317 26.4469ZM2.74281 26.7099C2.40204 26.7951 2.04155 26.6953 1.79317 26.4469L1.08606 27.154C1.58282 27.6507 2.3038 27.8504 2.98535 27.68L2.74281 26.7099ZM8.17224 25.3525L2.74281 26.7099L2.98535 27.68L8.41478 26.3227L8.17224 25.3525ZM8.63682 25.0895C8.50866 25.2177 8.34808 25.3086 8.17224 25.3525L8.41478 26.3227C8.76645 26.2348 9.08761 26.0529 9.34392 25.7966L8.63682 25.0895ZM25.6038 8.12254L8.63682 25.0895L9.34392 25.7966L26.3109 8.82964L25.6038 8.12254ZM26.4447 6.86397C26.2498 7.33464 25.964 7.7623 25.6038 8.12253L26.3109 8.82964C26.764 8.37655 27.1234 7.83865 27.3686 7.24665L26.4447 6.86397ZM26.74 5.37939C26.74 5.88884 26.6397 6.3933 26.4447 6.86397L27.3686 7.24665C27.6138 6.65466 27.74 6.02016 27.74 5.37939H26.74ZM26.4447 3.89481C26.6397 4.36548 26.74 4.86994 26.74 5.37939H27.74C27.74 4.73862 27.6138 4.10412 27.3686 3.51213L26.4447 3.89481ZM25.6038 2.63625C25.964 2.99648 26.2498 3.42414 26.4447 3.89481L27.3686 3.51213C27.1234 2.92013 26.764 2.38223 26.3109 1.92914L25.6038 2.63625ZM24.3452 1.7953C24.8159 1.99026 25.2436 2.27601 25.6038 2.63625L26.3109 1.92914C25.8578 1.47605 25.3199 1.11663 24.7279 0.871422L24.3452 1.7953ZM22.8606 1.5C23.3701 1.5 23.8746 1.60034 24.3452 1.7953L24.7279 0.871421C24.1359 0.626209 23.5014 0.5 22.8606 0.5V1.5ZM13.7165 25.7393C13.7165 25.1871 14.1642 24.7393 14.7165 24.7393V23.7393C13.6119 23.7393 12.7165 24.6348 12.7165 25.7393H13.7165ZM14.7165 26.7393C14.1642 26.7393 13.7165 26.2916 13.7165 25.7393H12.7165C12.7165 26.8439 13.6119 27.7393 14.7165 27.7393V26.7393ZM26.9327 26.7393H14.7165V27.7393H26.9327V26.7393ZM27.9327 25.7393C27.9327 26.2916 27.485 26.7393 26.9327 26.7393V27.7393C28.0373 27.7393 28.9327 26.8439 28.9327 25.7393H27.9327ZM26.9327 24.7393C27.485 24.7393 27.9327 25.1871 27.9327 25.7393H28.9327C28.9327 24.6348 28.0373 23.7393 26.9327 23.7393V24.7393ZM14.7165 24.7393H26.9327V23.7393H14.7165V24.7393Z" fill="#EAF5F4"/>
</svg>
