<svg width="26" height="22" viewBox="0 0 26 22" fill="none" xmlns="http://www.w3.org/2000/svg">
<path fill-rule="evenodd" clip-rule="evenodd" d="M3.33373 3.14625C3.46248 3.0546 3.61964 3 3.78903 3H22.1003C22.2697 3 22.4269 3.0546 22.5556 3.14625L12.9447 10.0112L3.33373 3.14625ZM0.0104065 3.5021C0.00177334 3.575 -0.00146091 3.64822 0.000601579 3.72116C0.000278629 3.74143 0.000116539 3.76175 0.000116539 3.7821V17.4747C0.000116539 19.5625 1.70592 21.2568 3.78903 21.2568H22.1003C24.1834 21.2568 25.8892 19.5625 25.8892 17.4747V3.7821C25.8892 3.76175 25.8891 3.74144 25.8888 3.72117C25.8908 3.64823 25.8876 3.575 25.8789 3.5021C25.7346 1.5449 24.0895 0 22.1003 0H3.78903C1.79988 0 0.15477 1.5449 0.0104065 3.5021ZM22.8892 6.59466V17.4747C22.8892 17.8972 22.535 18.2568 22.1003 18.2568H3.78903C3.35434 18.2568 3.00012 17.8972 3.00012 17.4747V6.59466L12.0728 13.0752C12.5944 13.4477 13.295 13.4477 13.8165 13.0752L22.8892 6.59466Z" fill="#319D8F"/>
</svg>
