<svg width="27" height="29" viewBox="0 0 27 29" fill="none" xmlns="http://www.w3.org/2000/svg">
<path d="M25.5 8.72426L16.5 1.10638C15.675 0.393895 14.6069 0 13.5 0C12.3932 0 11.3251 0.393895 10.5001 1.10638L1.50013 8.72426C1.02369 9.13568 0.643488 9.64037 0.384847 10.2047C0.126207 10.7691 -0.0049388 11.3802 0.00014219 11.9973V24.6552C0.00014219 25.8075 0.474245 26.9126 1.31815 27.7274C2.16206 28.5422 3.30664 29 4.50011 29H22.5C23.6934 29 24.838 28.5422 25.6819 27.7274C26.5259 26.9126 27 25.8075 27 24.6552V11.9829C27.0029 11.3682 26.8707 10.7599 26.6122 10.1981C26.3536 9.63641 25.9745 9.13406 25.5 8.72426ZM16.5 26.1035H10.5001V18.8621C10.5001 18.478 10.6581 18.1097 10.9394 17.8381C11.2207 17.5665 11.6022 17.4139 12.0001 17.4139H15C15.3979 17.4139 15.7794 17.5665 16.0607 17.8381C16.342 18.1097 16.5 18.478 16.5 18.8621V26.1035ZM24 24.6552C24 25.0393 23.8419 25.4077 23.5606 25.6793C23.2793 25.9509 22.8978 26.1035 22.5 26.1035H19.5V18.8621C19.5 17.7098 19.0259 16.6047 18.182 15.7899C17.3381 14.9751 16.1935 14.5173 15 14.5173H12.0001C10.8066 14.5173 9.66201 14.9751 8.8181 15.7899C7.97419 16.6047 7.50009 17.7098 7.50009 18.8621V26.1035H4.50011C4.10229 26.1035 3.72076 25.9509 3.43946 25.6793C3.15816 25.4077 3.00012 25.0393 3.00012 24.6552V11.9829C3.00039 11.7772 3.04601 11.574 3.13395 11.3867C3.22188 11.1994 3.35012 11.0324 3.51012 10.8967L12.5101 3.29326C12.7838 3.06108 13.1357 2.93303 13.5 2.93303C13.8644 2.93303 14.2163 3.06108 14.49 3.29326L23.49 10.8967C23.65 11.0324 23.7782 11.1994 23.8661 11.3867C23.9541 11.574 23.9997 11.7772 24 11.9829V24.6552Z" fill="#319D8F"/>
</svg>
