<svg width="37" height="38" viewBox="0 0 37 38" fill="none" xmlns="http://www.w3.org/2000/svg">
<path d="M27.6818 0.142944H9.22303C4.1375 0.142944 0 4.26353 0 9.32829V27.8622C0 32.9267 4.1375 37.0477 9.22303 37.0477H27.6818C32.7674 37.0477 36.9048 32.9266 36.9048 27.8622V9.32826C36.9048 4.26353 32.7674 0.142981 27.6818 0.142981V0.142944ZM33.4889 27.8622C33.4889 31.0509 30.884 33.6456 27.6819 33.6456H9.22307C6.02096 33.6456 3.41597 31.0509 3.41597 27.8622V15.8918H10.7129C10.1801 17.0178 9.88053 18.2738 9.88053 19.5984C9.88053 24.4097 13.8105 28.3233 18.6413 28.3233C23.4719 28.3233 27.402 24.4097 27.402 19.5984C27.402 18.2738 27.1024 17.0177 26.5696 15.8918H33.4889V27.8622H33.4889ZM15.0045 19.5985C15.0045 17.6016 16.6359 15.9767 18.6413 15.9767C20.6468 15.9767 22.2781 17.6017 22.2781 19.5985C22.2781 21.5958 20.6468 23.2204 18.6413 23.2204C16.6359 23.2203 15.0045 21.5958 15.0045 19.5985ZM33.4889 12.4899H23.7112C22.2787 11.474 20.5298 10.8738 18.6413 10.8738C16.7529 10.8738 15.0037 11.474 13.5716 12.4899H3.41597V9.32829C3.41597 6.13927 6.02096 3.54493 9.22307 3.54493H27.6819C30.884 3.54493 33.4889 6.13927 33.4889 9.32829V12.4899H33.489H33.4889ZM29.7874 5.60819H26.621C26.0572 5.60819 25.5962 6.06748 25.5962 6.62877V9.7824C25.5962 10.3437 26.0572 10.803 26.621 10.803H29.7874C30.3512 10.803 30.8122 10.3437 30.8122 9.7824V6.62877C30.8122 6.06748 30.3512 5.60819 29.7874 5.60819Z" fill="black"/>
</svg>
