<svg width="38" height="38" viewBox="0 0 38 38" fill="none" xmlns="http://www.w3.org/2000/svg">
<path fill-rule="evenodd" clip-rule="evenodd" d="M11.8516 31.5V14.791H6.49023V31.5H11.8516ZM9.37109 12.2617C11.1582 12.2617 12.2715 10.9824 12.2715 9.38086C12.2422 7.75 11.1582 6.5 9.40039 6.5C7.64258 6.5 6.5 7.75 6.5 9.38086C6.5 10.9824 7.61328 12.2617 9.33203 12.2617H9.37109Z" fill="black"/>
<path fill-rule="evenodd" clip-rule="evenodd" d="M25.3086 14.4102C22.4668 14.4102 21.2461 16.0117 20.4648 17.125V14.8008H15.0938V31.5H20.4648V21.9883C20.4648 21.5 20.5039 21.0117 20.6504 20.6699C21.041 19.6934 21.9199 18.6875 23.4043 18.6875C25.3477 18.6875 26.1289 20.1816 26.1289 22.3691V31.5H31.5V21.7441C31.5 16.7344 28.8438 14.4102 25.3086 14.4102Z" fill="black"/>
<path d="M34.7422 0.25H3.45312C1.74414 0.25 0.25 1.48047 0.25 3.16992V34.5273C0.25 36.2266 1.74414 37.7402 3.45312 37.7402H34.7324C36.4512 37.7402 37.7402 36.2168 37.7402 34.5273V3.16992C37.75 1.48047 36.4512 0.25 34.7422 0.25ZM34.4297 34.625H3.67773C3.50195 34.625 3.375 34.4883 3.375 34.3223V3.57031C3.375 3.46289 3.47266 3.375 3.57031 3.375H34.4297C34.5273 3.375 34.625 3.47266 34.625 3.57031V34.4297C34.625 34.5176 34.5371 34.625 34.4297 34.625Z" fill="black"/>
</svg>
