<svg width="24" height="28" viewBox="0 0 24 28" fill="none" xmlns="http://www.w3.org/2000/svg">
<path d="M22 12C22 19.7778 12 26.4444 12 26.4444C12 26.4444 2 19.7778 2 12C2 9.34784 3.05357 6.8043 4.92893 4.92893C6.8043 3.05357 9.34784 2 12 2C14.6522 2 17.1957 3.05357 19.0711 4.92893C20.9464 6.8043 22 9.34784 22 12Z" stroke="#319D8F" stroke-width="3" stroke-linecap="round" stroke-linejoin="round"/>
<path d="M12.0001 15.3334C13.841 15.3334 15.3334 13.841 15.3334 12.0001C15.3334 10.1591 13.841 8.66675 12.0001 8.66675C10.1591 8.66675 8.66675 10.1591 8.66675 12.0001C8.66675 13.841 10.1591 15.3334 12.0001 15.3334Z" stroke="#319D8F" stroke-width="3" stroke-linecap="round" stroke-linejoin="round"/>
</svg>
