<svg width="22" height="24" viewBox="0 0 22 24" fill="none" xmlns="http://www.w3.org/2000/svg">
<path d="M18 11H4C2.89543 11 2 11.8954 2 13V20C2 21.1046 2.89543 22 4 22H18C19.1046 22 20 21.1046 20 20V13C20 11.8954 19.1046 11 18 11Z" stroke="#319D8F" stroke-width="3" stroke-linecap="round" stroke-linejoin="round"/>
<path d="M6 11V7C6 5.67392 6.52678 4.40215 7.46447 3.46447C8.40215 2.52678 9.67392 2 11 2C12.3261 2 13.5979 2.52678 14.5355 3.46447C15.4732 4.40215 16 5.67392 16 7V11" stroke="#319D8F" stroke-width="3" stroke-linecap="round" stroke-linejoin="round"/>
</svg>
