<svg width="35" height="40" viewBox="0 0 35 40" fill="none" xmlns="http://www.w3.org/2000/svg">
<path d="M16.7951 14.2986C16.7951 10.0744 16.8071 5.85134 16.7806 1.62713C16.777 1.06311 16.9532 0.947686 17.4878 0.953636C19.781 0.981004 22.0741 0.982194 24.3661 0.952446C24.8766 0.946497 25.0009 1.09048 24.9961 1.57834C24.9611 4.76613 26.2863 7.23521 29.0754 8.89872C30.537 9.76974 32.1664 9.96965 33.8247 9.98274C34.3629 9.9875 34.5307 10.1208 34.5223 10.6729C34.4885 12.9325 34.4981 15.1946 34.5174 17.4542C34.521 17.8659 34.4076 17.973 33.984 17.9885C30.9715 18.098 28.1159 17.5304 25.4559 16.1132C24.8766 15.8038 25.0287 16.2393 25.0299 16.488C25.0335 19.8591 25.0528 23.2301 25.054 26.6011C25.0564 32.7959 20.6886 37.9482 14.4899 38.893C7.43424 39.9687 1.11483 35.2756 0.132403 28.5966C-0.862095 21.8403 3.82556 16.0942 9.9579 14.8804C11.5353 14.5687 13.1079 14.602 14.6926 14.7745C15.2116 14.8305 15.4144 15.0244 15.4047 15.5944C15.3637 17.973 15.3709 20.3541 15.3999 22.7327C15.4071 23.3063 15.2394 23.3396 14.759 23.1551C13.6233 22.722 12.4731 22.4555 11.2433 22.8505C9.30737 23.4717 8.06425 25.3589 8.3165 27.3722C8.56029 29.3189 10.2427 30.861 12.2631 30.9907C14.3112 31.1228 16.1083 29.8425 16.6394 27.9041C16.7685 27.4341 16.7661 26.9653 16.7818 26.4929C16.7842 26.4334 16.7818 26.3739 16.7818 26.3144C16.7818 22.3091 16.7818 18.3026 16.7818 14.2974C16.7878 14.2986 16.7915 14.2986 16.7951 14.2986ZM22.8236 11.6724C23.0022 11.6546 23.0795 11.7914 23.1869 11.8711C24.1983 12.6184 25.1711 13.418 26.2838 14.0296C27.9349 14.9376 29.7079 15.4611 31.5713 15.7134C32.0565 15.7788 32.3824 15.7229 32.3076 15.0934C32.2472 14.5853 32.3003 14.0642 32.2943 13.5477C32.2882 13.1134 32.4174 12.5863 32.2146 12.2709C32.0022 11.9413 31.4096 12.052 30.986 11.9663C26.8076 11.1179 23.6129 7.86468 22.8936 3.69402C22.8321 3.33466 22.7065 3.19782 22.3203 3.21091C21.4767 3.24066 20.6282 3.2597 19.787 3.20734C19.1872 3.16926 19.0242 3.3299 19.0267 3.94271C19.0496 11.6558 19.0544 19.3688 19.0327 27.0819C19.0218 30.9039 15.1211 33.8918 11.3181 33.1374C8.03046 32.4853 5.54663 29.3201 6.10301 25.861C6.53267 23.1908 8.82099 20.8419 11.4895 20.4897C12.0266 20.4183 12.776 20.7015 13.0512 20.2791C13.3083 19.884 13.1212 19.2034 13.1212 18.6489C13.1236 16.6867 13.1224 16.6867 11.131 16.9307C5.30524 17.6458 1.34294 23.1313 2.48709 28.8477C3.52142 34.0167 9.02133 38.0648 15.1549 36.462C19.8812 35.2269 22.7874 31.3501 22.7826 26.5131C22.779 21.7736 22.7669 17.0354 22.7633 12.2959C22.7633 12.0877 22.6945 11.8676 22.8236 11.6724Z" fill="black"/>
</svg>
