<svg width="109" height="82" viewBox="0 0 109 82" fill="none" xmlns="http://www.w3.org/2000/svg">
<g opacity="0.45">
<path d="M108.535 77.8572V3.38878C108.535 1.67507 107.25 0.272949 105.679 0.272949H2.85618C1.28528 0.272949 0 1.67507 0 3.38878V78.1688C0 82.0636 4.7127 81.2846 2.85618 81.2846H105.679C109.963 81.2846 107.964 74.1182 108.535 77.8572ZM8.56854 75.053L39.9865 30.3407L66.2634 67.8866L71.2617 75.053H8.56854ZM78.545 75.053L72.1186 66.0171L82.8293 50.7495L99.8235 75.053H78.545ZM102.823 68.8213L85.1142 43.583C83.9717 41.8693 81.6868 41.8693 80.5443 43.583L68.5484 60.7201L42.2715 23.3301C41.129 21.6164 38.8441 21.6164 37.7016 23.3301L5.71236 68.9771V6.50462H102.823V68.8213ZM69.9764 15.8521C64.4069 15.8521 59.9798 20.6817 59.9798 26.7575C59.9798 32.8334 64.4069 37.663 69.9764 37.663C75.546 37.663 79.9731 32.8334 79.9731 26.7575C79.9731 20.6817 75.4032 15.8521 69.9764 15.8521ZM69.9764 31.4313C67.6915 31.4313 65.6922 29.406 65.6922 26.7575C65.6922 24.1091 67.5487 22.0838 69.9764 22.0838C72.4042 22.0838 74.2607 24.1091 74.2607 26.7575C74.2607 29.406 72.2614 31.4313 69.9764 31.4313Z" fill="black"/>
</g>
</svg>
