<svg width="43" height="34" viewBox="0 0 43 34" fill="none" xmlns="http://www.w3.org/2000/svg">
<path d="M22.1819 3.6074C27.6479 3.6074 32.1178 3.69948 36.2528 3.88363H36.37C38.3036 3.88363 39.8856 5.72515 39.8856 7.99356V8.08564L39.894 8.17772C40.0865 11.0237 40.1786 13.9785 40.1786 16.9584C40.187 19.9383 40.0865 22.8931 39.894 25.7391L39.8856 25.8312V25.9233C39.8856 27.0784 39.4922 28.1498 38.764 28.945C38.1111 29.6649 37.2573 30.0667 36.37 30.0667H36.2361C31.8081 30.2759 27.1289 30.3847 22.3075 30.3847H21.4202H21.4286H20.5162C15.678 30.3847 10.9989 30.2759 6.60437 30.075H6.47044C5.58317 30.075 4.73774 29.6733 4.08484 28.9534C3.36497 28.1582 2.96319 27.0868 2.96319 25.9316V25.8395L2.95482 25.7475C2.75392 22.8931 2.66185 19.9383 2.67859 16.9835V16.9668C2.67022 14.012 2.7623 11.0656 2.95482 8.2112L2.96319 8.11912V8.02705C2.96319 5.75026 4.53685 3.90037 6.47044 3.90037H6.58763C10.731 3.70785 15.2009 3.62415 20.6669 3.62415H22.1819V3.6074ZM22.1819 0.928833H20.6752C15.8538 0.928833 11.1161 0.995798 6.47881 1.20506C3.06363 1.20506 0.292987 4.24357 0.292987 8.01031C0.0837237 11.007 -0.00835224 13.9869 1.82958e-05 16.9751C-0.00835224 19.9634 0.0753531 22.9433 0.284617 25.9316C0.284617 29.6984 3.05526 32.762 6.47044 32.762C11.0575 32.9796 15.7366 33.0801 20.5162 33.0801H22.3242C27.1038 33.0801 31.7829 32.9796 36.3784 32.762C39.8019 32.762 42.5726 29.6984 42.5726 25.9316C42.7735 22.9433 42.8655 19.9551 42.8572 16.9668C42.8655 13.9785 42.7735 10.9986 42.5726 8.00194C42.5726 4.23519 39.8019 1.21343 36.3784 1.21343C31.7411 0.995797 27.0117 0.928833 22.1819 0.928833Z" fill="black"/>
<path d="M17.327 25.1866V8.74683L29.4643 16.9667L17.327 25.1866Z" fill="black"/>
</svg>
